<?xml version="1.0" ?>

<!-- Uploaded to: SVG Repo, www.svgrepo.com, Generator: SVG Repo Mixer Tools -->
<svg width="800px" height="800px" viewBox="0 0 281.25 281.25" id="svg2" version="1.1" xml:space="preserve" xmlns="http://www.w3.org/2000/svg" xmlns:cc="http://creativecommons.org/ns#" xmlns:dc="http://purl.org/dc/elements/1.1/" xmlns:rdf="http://www.w3.org/1999/02/22-rdf-syntax-ns#" xmlns:svg="http://www.w3.org/2000/svg">

<defs id="defs4"/>

<g id="layer1" transform="translate(6693.6064,-3106.6404)">

<path d="m -6571.2278,3152.177 a 4.6875,4.6875 0 0 0 -4.6875,4.6875 v 30.2893 c -20.4987,13.3443 -39.5255,28.9411 -56.5942,46.4612 -6.5372,6.7101 -12.9732,13.8784 -18.1494,22.1631 -5.1866,8.3016 -9.0731,17.7734 -9.95,27.9144 -1.2735,14.7255 4.0961,29.5145 13.916,40.3766 9.1317,10.101 21.8875,16.6759 35.4126,18.2538 a 4.6875,4.6875 0 0 0 0.2216,-0.033 4.6875,4.6875 0 0 0 0.3203,0.064 h 115.5139 a 4.6875,4.6875 0 0 0 0.3205,-0.064 4.6875,4.6875 0 0 0 0.2234,0.033 c 13.525,-1.5779 26.279,-8.1529 35.4107,-18.2538 9.82,-10.8621 15.1896,-25.6511 13.916,-40.3766 -0.877,-10.141 -4.7596,-19.6127 -9.9462,-27.9144 -5.1762,-8.2847 -11.6141,-15.4531 -18.1513,-22.1631 -17.068,-17.5194 -36.0946,-33.1153 -56.5924,-46.4593 v -30.2912 a 4.6875,4.6875 0 0 0 -4.6875,-4.6875 z m 4.6875,9.375 h 27.1216 v 28.125 a 4.6875,4.6875 0 0 0 0.4944,2.0196 4.6875,4.6875 0 0 0 0.077,0.1886 4.6875,4.6875 0 0 0 1.496,1.6389 4.6875,4.6875 0 0 0 0.092,0.1007 c 20.7239,13.2609 39.9254,28.9097 57.0941,46.5326 6.349,6.5169 12.305,13.2121 16.9135,20.5884 4.598,7.3593 7.8461,15.4957 8.5602,23.7523 1.0289,11.8976 -3.4295,24.3246 -11.5302,33.285 -7.5118,8.3092 -18.2023,13.842 -29.3225,15.1959 h -30.1263 c 13.1791,-9.3113 21.3786,-24.4707 23.3789,-40.2594 1.6566,-13.0768 -0.76,-26.5598 -6.8555,-38.247 a 4.6875,4.6875 0 0 0 -2.7502,-2.3035 4.6875,4.6875 0 0 0 -3.5744,0.3149 4.6875,4.6875 0 0 0 -1.9885,6.3245 c 5.1927,9.9564 7.278,21.5937 5.8667,32.7338 -1.7678,13.9535 -9.4079,27.3778 -20.9839,34.8138 -6.067,3.8973 -13.2012,6.2022 -20.4016,6.6083 -7.2005,-0.4061 -14.3363,-2.711 -20.4034,-6.6083 -11.5759,-7.436 -19.2179,-20.8603 -20.9857,-34.8138 -1.4113,-11.1401 0.6757,-22.7774 5.8685,-32.7338 a 4.6875,4.6875 0 0 0 -1.9904,-6.3245 4.6875,4.6875 0 0 0 -3.5724,-0.3149 4.6875,4.6875 0 0 0 -2.7484,2.3035 c -6.0955,11.6872 -8.5157,25.1702 -6.8591,38.247 2.0003,15.7887 10.2016,30.9481 23.3807,40.2594 h -30.1281 c -11.1196,-1.3541 -21.8093,-6.8871 -29.3207,-15.1959 -8.1007,-8.9604 -12.5572,-21.3874 -11.5283,-33.285 0.714,-8.2566 3.9603,-16.393 8.5583,-23.7523 4.6086,-7.3763 10.5645,-14.0715 16.9135,-20.5884 17.1688,-17.6229 36.3683,-33.2717 57.0922,-46.5326 a 4.6875,4.6875 0 0 0 0.7197,-0.5805 4.6875,4.6875 0 0 0 0.1776,-0.1922 4.6875,4.6875 0 0 0 0.5291,-0.6904 4.6875,4.6875 0 0 0 0.1429,-0.2271 4.6875,4.6875 0 0 0 0.401,-0.9649 4.6875,4.6875 0 0 0 0.057,-0.2564 4.6875,4.6875 0 0 0 0.1136,-0.8716 4.6875,4.6875 0 0 0 0.022,-0.1648 z" id="path1282" style="color:#000000;fill:#333333;fill-opacity:1;stroke-linecap:round;stroke-linejoin:round;-inkscape-stroke:none"/>

</g>

</svg>