<?xml version="1.0" ?>

<!-- Uploaded to: SVG Repo, www.svgrepo.com, Generator: SVG Repo Mixer Tools -->
<svg width="800px" height="800px" viewBox="0 0 281.25 281.25" id="svg2" version="1.1" xml:space="preserve" xmlns="http://www.w3.org/2000/svg" xmlns:cc="http://creativecommons.org/ns#" xmlns:dc="http://purl.org/dc/elements/1.1/" xmlns:rdf="http://www.w3.org/1999/02/22-rdf-syntax-ns#" xmlns:svg="http://www.w3.org/2000/svg">

<defs id="defs4"/>

<g id="layer1" transform="translate(6693.6064,-4296.9987)">

<g id="g32771" transform="translate(-2275.5314,-394.17692)">

<path d="m -4332.697,4773.6491 a 4.6875,4.6875 0 0 0 -0.7452,0.1483 4.6875,4.6875 0 0 0 -0.7691,0.1025 v 0 c -22.9749,7.8456 -41.8675,26.223 -50.3467,48.9716 -6.651,17.8437 -6.8363,38.0206 0.015,55.8764 8.5065,22.1721 27.7158,39.6645 50.5847,46.0657 a 4.6875,4.6875 0 0 0 0.6317,0.049 4.6875,4.6875 0 0 0 0.6317,0.1245 h 110.4895 a 4.6875,4.6875 0 0 0 0.6317,-0.1245 4.6875,4.6875 0 0 0 0.6336,-0.049 c 22.8689,-6.4012 42.0765,-23.8936 50.5829,-46.0657 6.8506,-17.8558 6.667,-38.0327 0.016,-55.8764 -8.4792,-22.7486 -27.3736,-41.126 -50.3485,-48.9716 a 4.6875,4.6875 0 0 0 -0.046,-0.01 4.6875,4.6875 0 0 0 -1.4704,-0.2453 z m 0.8423,9.375 h 11.3068 c -17.968,17.0096 -28.6269,41.5017 -28.277,66.3592 0.2114,15.0205 4.2797,29.9229 11.7261,42.9694 5.0084,8.7749 11.5215,16.6568 19.1491,23.2599 h -14.0332 c -19.6432,-5.6964 -36.4838,-21.1296 -43.8098,-40.2246 -5.9783,-15.5825 -5.8399,-33.5252 0.018,-49.2408 7.3714,-19.7764 24.0199,-36.0906 43.9197,-43.1231 z m 26.0358,0 h 55.0049 c 20.8847,14.8705 33.9918,40.5891 33.6309,66.2274 -0.1888,13.4112 -3.8433,26.807 -10.4919,38.4558 -6.4362,11.2767 -15.7149,20.9625 -26.6895,27.9053 h -47.9058 c -10.9744,-6.9428 -20.2496,-16.6286 -26.6858,-27.9053 -6.6486,-11.6488 -10.305,-25.0446 -10.4938,-38.4558 -0.3609,-25.6383 12.7462,-51.3569 33.631,-66.2274 z m 69.7339,0 h 13.0389 c 19.8997,7.0326 36.5484,23.3468 43.9197,43.1231 5.8578,15.7156 5.9926,33.6583 0.015,49.2408 -7.3259,19.095 -24.1666,34.5282 -43.8098,40.2246 h -15.7635 c 7.6282,-6.6031 14.1444,-14.485 19.1528,-23.2599 7.4464,-13.0465 11.5128,-27.9489 11.7242,-42.9694 0.3499,-24.8575 -10.309,-49.3496 -28.2769,-66.3592 z" id="path9804" style="color:#000000;fill:#2aff2a;fill-opacity:1;stroke-linecap:round;stroke-linejoin:round;-inkscape-stroke:none"/>

<path d="m -4289.312,4738.6155 a 4.6875,4.6875 0 0 0 -4.6875,4.6875 v 21.0901 l -14.6667,9.256 h 17.5653 l 4.2902,-2.7082 a 4.6875,4.6875 0 0 0 0.39,-0.2783 4.6875,4.6875 0 0 0 0.059,-0.048 4.6875,4.6875 0 0 0 0.6848,-0.6848 4.6875,4.6875 0 0 0 0.051,-0.066 4.6875,4.6875 0 0 0 0.5164,-0.8185 4.6875,4.6875 0 0 0 0.033,-0.07 4.6875,4.6875 0 0 0 0.3167,-0.9045 4.6875,4.6875 0 0 0 0.024,-0.1062 4.6875,4.6875 0 0 0 0.1062,-0.9375 4.6875,4.6875 0 0 0 0.01,-0.05 v -18.988 h 14.3463 v 18.988 a 4.6875,4.6875 0 0 0 0.029,0.26 4.6875,4.6875 0 0 0 0.059,0.5182 4.6875,4.6875 0 0 0 0.1136,0.5036 4.6875,4.6875 0 0 0 0.1757,0.4999 4.6875,4.6875 0 0 0 0.2271,0.4742 4.6875,4.6875 0 0 0 0.2728,0.434 4.6875,4.6875 0 0 0 0.3351,0.4211 4.6875,4.6875 0 0 0 0.3571,0.3571 4.6875,4.6875 0 0 0 0.4193,0.3369 4.6875,4.6875 0 0 0 0.1977,0.1574 l 4.2902,2.7082 h 17.5635 l -14.665,-9.256 v -21.0901 a 4.6875,4.6875 0 0 0 -4.6875,-4.6875 z" id="path9834" style="color:#000000;fill:#333333;fill-opacity:1;stroke-linecap:round;stroke-linejoin:round;-inkscape-stroke:none"/>

</g>

</g>

</svg>